<svg xmlns="http://www.w3.org/2000/svg" width="2048" height="582"><path fill="#0C0C0C" d="m438.5 35 1.5 4.5V69l-4-.5v-26l2.5-7.5ZM437.5 74l3.5 1.5 14 26 7 10-47.5.5.5-1.5 5-7 11-23 4.5-5.5 2-1ZM415.5 117H462v27l-5-.5v-18q-1-2.5-5.5-1.5l-1.5 1.5V144h-5.5l-.5-1.5q2.8-1.7 1-8-2.7-1.7-1-8l-3.5-3.5q-6.5-1-7.5 3.5v17l-5 .5v-15.5l-2.5-4.5q-5.4-1.9-4.5 1.5l-1 1v17l-1.5 1.5-3.5-.5v-25q-2.3-1.2.5-2.5ZM411.5 150h53l4.5 3.5 7.5 8.5 11.5 9.5-98.5.5 2-3 20-19ZM829.5 172h20l14 3q15.5 5.5 25.5 16.5l5 7-14.5 10.5h-2q-6.8-9.7-18-15l-15-4h-13q-21.7 3.8-32.5 18.5-6.2 7.8-9 19l-1 15-1 1 1 1v9l3 11q5.2 13.3 15.5 21.5l14 8 7 2 12 1 1-1 12-1 11-5 15-14h2l13.5 8q-4.5 10.2-13.5 17-10.4 8.6-26 12l-5 1h-23q-30.4-5.6-45.5-26.5-8-10.5-12-25l-2-10v-20l4-17 6-12 13.5-15.5 18-11 20-5ZM1310.5 172h12l13 3q12.9 5.1 20.5 15.5l1 3-14.5 10.5-6-7q-8.2-8.3-26-7-10.4 2.1-15.5 9.5-3.9 4.1-3 13 2.2 8.4 8.5 12.5l8 4 25 8q11.4 4.1 18.5 12.5 5.2 5.9 7 15v14q-3 18-15.5 26.5-12.9 10.6-38 9-1.5-2.5-7-1l-13-5-12.5-10.5-5-9 12.5-9.5 4.5-1q1.9 8.7 9.5 13l12 5h14q9.7-1.8 14.5-8.5 5.4-5.6 4-18-2.1-7.4-7.5-11.5l-12-6q-16.8-3.7-30-11l-11.5-10.5-5-11-1-13q3-18 15.5-26.5l7-4 16-4ZM958 175h18.5l1.5 1.5 56 134-22 .5-14.5-36h-60l-.5 1.5-14.5 34.5h-20l-.5-1.5L958 175Zm10 23-23 57v3h15l1-1h20l1 1h9l-23-60ZM1016 175h21.5l1.5 1.5 40.5 107.5 28.5-73.5 5-16 8.5-19.5h20l.5 1.5-53 134.5h-18.5l-.5-1.5-54-134.5ZM1145 175h22.5l.5 1.5 35 58.5q2.7 1.1 2-1.5l36.5-58.5h20l.5 1.5-41 66-7 9-1 4V311h-19.5l-.5-.5v-59l-48-76.5ZM1388 175h20v56h36.5l1 1h32.5v-57h20v135.5l-.5.5H1478v-62h-70v61.5l-.5.5H1388V175ZM1538 175h18.5l.5.5V311h-18.5l-.5-.5V175ZM1597.5 175h56l13 3q8.8 3.3 14.5 9.5l8 15 1 14-2 10-4 8-9.5 9.5-14.5 6.5 37 60-22.5.5q-19.2-27.6-34.5-58l-2.5-1H1617l-1 59h-18.5l-.5-.5v-133q-2.2-1.2.5-2.5Zm19.5 18v42h33l8-2 6-4q4-4 5-10 2-12-3-17-4-8-14-9h-35ZM1721 175h88.5l.5.5V193h-70v38h19.5l1 1h41.5v15.5l-1.5 1.5H1740v45q4.5-2 13.5-1l1 1h57.5v16.5l-.5.5H1721l-1-121.5 1-1V175ZM392 178h91.5l.5.5v11l1 1v43l-1 2 1 3-1 1V260h-22v-20h-7v45.5l1 1v157l-1 1V477l-3-.5v-14l-1-1v-28l-6.5-7.5q-3.5-2.5-11-1l-6.5 5.5-2 5V477l-4-.5v-236l-.5-.5H414v20h-22v-82Zm43 7-11 5-7 9-2 8q0 9 4 14 5 7 16 9 11 0 18-5l5-6 3-10q0-9-4-14-6-11-22-10Zm2 82-2 1-4 5v25l-1 1h16v-24l-1-3-4-5h-4Zm1 49-3 1-4 5-1 5v21h16v-25l-1-2q-2-5-7-5Zm-2 49q-5 3-6 10v21h16v-24l-1-3q-1-5-9-4Z" opacity=".957"/><path fill="#0C0C0C" d="M433.5 191q14-1.5 18.5 6.5 3.9 4.1 3 13l-5.5 9.5q-4.7 5.8-17 4l-9.5-7.5q-2.9-3.6-2-11 1.9-9.6 9.5-13.5l3-1Zm5.5 3-3 3q2 5-1 7-1 6 1 8h4l9-4q3-1 0-3l-9 1 1-10-2-2ZM575.5 243l26 2 24 7q27.8 12.7 45.5 35.5l20 23 16 23 7 19v15q-3.7 19.3-16.5 29.5l-4.5 2-.5-8-4 5-5 2-17.5.5q4.9 6.1 17.5 4.5l5-2 .5 1.5-13.5 8.5-23 7-11 2h-10l-1 1h-19l-1-1h-9l-6-2h-5l-18-6 1 2q13.5 9 32 13l13 1 1 1h21l9-2 .5 1.5q-11 12-26.5 19.5-14.2 6.8-33 9l1.5-2.5-.5-1.5-6 3-13 1-3.5-1-1.5-4-.5 8.5 2 3.5 14 10.5 1 4.5h-2.5l-9-6-.5 1.5 4 8-1.5-.5-8-2-10.5-6-1 7.5-1.5 1.5-6.5-5.5q-2.1-8.4-8.5-12.5-14-7-25-17l-.5 1.5 11 14q-1.2 2.8-2.5.5h-13l-1-1-13-1-1.5-1.5v-212l2.5-.5 13 3h18l28-6 20-1 1-1Zm3.5 11-9 2-7 4q-6 6-9 15l-8 6q-10 0-16 4-6 3-8 10-1 8 3 12l10 7 12 3h7l8-3 7-7 1-4 15-5 8-5q9-7 12-20l-2-7q-7-11-24-12Zm48 48-5 2-6 8q-1 9 2 13l8 5h8l6-3 4-7q1-8-2-12-3-8-15-6Zm54 61-1 3 2 4 6 3h4l2-3-13-7Zm30 1-7 7q-2 4 2 3l5-7v-3ZM669.5 253q12.6-1.6 16.5 5.5 5.1 6.9 7 17-3.3 9.7-10.5 15.5-3.3 1.1-2.5-1.5L658.5 266l-7.5-5.5q-.8-2.6 2.5-1.5l16-6ZM226 255h15v28h26.5l2.5 1.5-57.5 52.5-2 1h-37l6-7 46.5-43.5V255ZM392 267h21.5l.5.5V477h-21.5l-.5-.5V267ZM462 267h21.5l.5.5V477h-21.5l-.5-.5V267ZM281 283h103v54l-5.5 1h-40L281 284.5V283ZM274.5 292l49.5 45.5q.8 2.3-1.5 1.5l-1-1-96.5-.5 49.5-45.5Zm1.5 16-3 1-6 8 2 7 5 3h6l3-2 3-7-1-4q-2-6-9-6Z" opacity=".957"/><path fill="#0C0C0C" d="M628.5 303q8.4.1 11.5 5.5l2 8q-1.2 5.8-5.5 8.5l-8 2q-5.7-1.2-8.5-5.5l-2-8q1.3-5.7 5.5-8.5l5-2ZM182 348h22.5l1 1 2-1 1 1H233v106.5l-.5.5h-9l-2.5 1-.5 2-.5-27h-18.5l-1.5 1.5v26l1.5 1.5h17l1-1 1.5 1.5v14l-1.5 1.5H182V348Zm18 6v29h20v-29h-20Zm15 39-1 1h-14v29h20v-29q0-2-5-1ZM326.5 348h38l1 1 19.5.5-1 1V477h-52v-21h-9.5l-.5-.5v-37l-1-1v-67l-1-1 6.5-1.5Zm18.5 6v29h19v-29h-19Zm0 39v29h19v-27l-1-2h-18Zm2 39-2 2v27h19v-29h-17ZM243 349l12 .5-4 .5v34.5l-1 1V456h-5.5l-.5-.5v-98l-1-1V349ZM260.5 349l34.5.5-1 1V456h-5.5l-.5-.5v-23l-1-2.5h-18.5l-1.5 1.5v24l-.5.5H261V350.5l-.5-1.5Zm13.5 4-7 6v55h21v-31l-1-1q-1-6 1-7l-2-17q-3-6-12-5ZM300.5 349l11.5.5-1 1V456q-5.4 1.5-7-1.5v-102l-1-2.5q-3.3.8-2.5-1ZM875.5 365q21.7.3 31.5 12.5 6.5 6.5 9 17l1 16q-3.3 16.7-14.5 25.5l-14 7-14 1q-1.2-2.3-6-1l-12-5-10.5-10.5-6-13-1-13q2.5-1.5 1-7l5-12 10.5-10.5 7-4 13-3Zm-4.5 10-10 5q-8 6-11 18v15l5 11q6 9 20 11 12 0 20-5 10-7 12-21 1-15-5-22-7-15-31-12ZM1033.5 365q22.5 0 32.5 12.5 6.2 6.8 9 17l1 16q-3.3 16.7-14.5 25.5-9.5 8.5-28 8l-16-5-10.5-8.5-8-15-1-16 5-16 9.5-10.5 11-6 10-2Zm2.5 9-9 2-6 3-9 10-4 13 1 12 4 9q6 9 20 12 15 1 22-6l6-6 4-9q-1-6 1-7l-2-14-4-7q-7-11-24-12ZM1201.5 365q24-1.5 33.5 11.5l1 2-8.5 4.5q-6.7-9.8-24-9-12.9 2.1-19.5 10.5l-6 14v12q3 12 11.5 18.5 8 7 24 6 1.3-2.3 6-1l7.5-3.5V411h-17v-9h27v32.5l-2.5 2.5-11 5-18 2-16-4-12.5-9.5-8-15q-2.5-7.5-1-19 3.8-16.2 15.5-24.5l7-4 11-3ZM1397.5 365h11l8 2q9.5 3.5 15.5 10.5.5 4-2.5 4.5l-5 3q-4.6-6.9-13-10l-12-1q-14.3 2.2-20.5 12.5l-5 13v11q2.4 12.1 10.5 18.5 6.8 6.2 20 6 13-2 19.5-10.5l1.5-2.5 8.5 5.5-6.5 7.5q-5.8 5.7-15 8l-13 1-10-2-8-4-10.5-9.5q-8.1-9.9-7-29 2.9-17.6 14.5-26.5 7.4-6.1 19-8ZM1477.5 365h8l12 3q10.3 4.7 16.5 13.5l5 10 2 16-4 15-8.5 11.5q-9.9 10.1-30 10l-10-2-8-4-9.5-8.5q-9.6-10.4-8-32 2.6-14.4 11.5-22.5l11-7 12-3Zm2.5 9-9 2-7 4q-8 6-11 18-2 19 7 28l11 7 9 2 10-1 10-5q7-6 10-16 3-20-6-28-7-11-24-11ZM1732.5 365q24.6-.6 33.5 14.5l-9 5.5-3.5-5q-7.5-7.5-25-5-9.9 3.1-15.5 10.5-6.2 7.8-6 22 2.2 1.3 1 6l4 9 7.5 7.5 8 4 11 1q13-2 19.5-10.5l1.5-2.5 7.5 4v2.5l-6.5 7.5q-9.2 8.8-28 8l-12-3q-8.3-3.2-13.5-9.5-6.2-6.8-9-17l-1-14 3-12 8-12.5 12.5-8 12-3ZM774.5 367h32q9.7 1.8 14.5 8.5 4.5 4.5 3 15-1.8 7.2-7.5 10.5l-3.5 1.5q7.4 1.6 11 7 4.4 5.1 3 16-2.1 8.4-8.5 12.5l-10 4H774v-71.5l-1-2 1.5-1.5Zm9.5 9v23h20l4-1 5-5 1-4-2-8-7-5h-21Zm0 32v25h23l5-2 5-7q1-7-2-10l-2-3-8-3h-21ZM934 367h32.5q9.5 1.6 14.5 7.5 5.8 5.7 4 19-1.8 7.6-7.5 11.5l-8.5 3 19 34h-10.5l-1.5-1.5-17-30.5h-15v29.5q2.3 1.3-.5 2.5h-9l-.5-.5V367Zm10 9v24h23l4-2 4-6-1-9q-3-5-9-7h-21ZM1093.5 367h8l.5.5v47q2.2 1.3 1 6l3 6 5.5 5.5 4 2 8 1 5-1 8.5-5.5 3-5 2-10v-43l-1-2 1.5-1.5h8l1.5 1.5v49l-3 11-7.5 9.5-11 5-10 1-10-2-11.5-7.5-4-6-3-12v-48l1.5-1.5ZM1257 367h9.5l.5.5V398h39v-30.5l.5-.5h9q3 1.5 1.5 7.5l-1 2 1 1v8l-1 1v9l1 1V442h-10.5l-.5-.5V407h-39v34.5l-.5.5h-9.5v-75ZM1537 367h9.5l.5.5v47q2.5 1.5 1 7l6.5 9.5q5 4 14 4l5-1 7.5-4 5-10.5V367h9.5l.5.5v53q-1.9 9.7-7 15.5l-13.5 7-12 1-9-2-10.5-7.5q-5.4-6.6-7-17V367ZM1618 367h9.5l2.5 2.5 39.5 56.5.5-59h9.5l.5.5V442h-9.5l-4.5-4.5-38.5-54.5-.5 13.5 1 1v43l-1.5 1.5h-8.5v-75ZM1783.5 367h8l.5.5v72q2.3 1.3-.5 2.5h-8l-1.5-1.5v-72l1.5-1.5ZM1816.5 367h8l1.5 1.5V433h34.5q3 1.5 1.5 7.5l-1.5 1.5h-44l-1.5-1.5v-32q2.5-1.5 1-7l-1-2 1-1v-11l-1-1v-18l1.5-1.5ZM614.5 456l7 8 10.5 4 4 7.5-2.5.5-9-5 .5 1.5 2 5.5h-4.5l-14.5-6q1.5 5.4-1.5 7l-5.5-4.5-10-13q15.1.6 23.5-5.5Z" opacity=".957"/><path fill="#0C0C0C" d="M229.5 462h96l.5.5V477h-98.5l-.5-.5V463l2.5-1Z" opacity=".957"/></svg>